<?xml version="1.0" encoding="UTF-8" standalone="no"?>
<!-- Created with Inkscape (http://www.inkscape.org/) -->

<svg
   version="1.1"
   id="svg1"
   width="1541.0247"
   height="204.35916"
   viewBox="0 0 1541.0247 204.35916"
   sodipodi:docname="logo.svg"
   inkscape:version="1.4 (86a8ad7, 2024-10-11)"
   xmlns:inkscape="http://www.inkscape.org/namespaces/inkscape"
   xmlns:sodipodi="http://sodipodi.sourceforge.net/DTD/sodipodi-0.dtd"
   xmlns="http://www.w3.org/2000/svg"
   xmlns:svg="http://www.w3.org/2000/svg">
  <defs
     id="defs1">
    <inkscape:path-effect
       effect="fillet_chamfer"
       id="path-effect1"
       is_visible="true"
       lpeversion="1"
       nodesatellites_param="F,0,0,1,0,159.47495,0,1 @ F,0,0,1,0,159.47495,0,1 @ F,0,0,1,0,159.47495,0,1 @ F,0,0,1,0,159.47495,0,1 @ F,0,0,1,0,159.47495,0,1 @ F,0,0,1,0,159.47495,0,1 @ F,0,0,1,0,159.47495,0,1"
       radius="90"
       unit="px"
       method="auto"
       mode="F"
       chamfer_steps="1"
       flexible="false"
       use_knot_distance="true"
       apply_no_radius="true"
       apply_with_radius="true"
       only_selected="false"
       hide_knots="false" />
    <rect
       x="274.57812"
       y="1738.155"
       width="1735.6359"
       height="302.28781"
       id="rect3746" />
    <rect
       x="641.24933"
       y="1781.248"
       width="689.34302"
       height="206.62479"
       id="rect3745" />
    <rect
       x="236.79213"
       y="1647.4686"
       width="1113.4268"
       height="347.63101"
       id="rect3744" />
    <rect
       x="166.2583"
       y="1692.8118"
       width="1869.1464"
       height="261.98279"
       id="rect3743" />
    <rect
       x="-418.16483"
       y="1718.0024"
       width="665.0332"
       height="272.05905"
       id="rect3742" />
  </defs>
  <sodipodi:namedview
     id="namedview1"
     pagecolor="#ffffff"
     bordercolor="#000000"
     borderopacity="0.25"
     inkscape:showpageshadow="2"
     inkscape:pageopacity="0.0"
     inkscape:pagecheckerboard="0"
     inkscape:deskcolor="#d1d1d1"
     showgrid="false"
     inkscape:zoom="0.39697266"
     inkscape:cx="671.33087"
     inkscape:cy="69.274292"
     inkscape:window-width="1920"
     inkscape:window-height="1094"
     inkscape:window-x="-11"
     inkscape:window-y="-11"
     inkscape:window-maximized="1"
     inkscape:current-layer="g1" />
  <path
     id="path3741"
     style="fill:#a6c48a;fill-opacity:1"
     inkscape:transform-center-x="0.044476477"
     inkscape:transform-center-y="-5.3625398"
     transform="matrix(0.08832203,0,0,0.0899043,82.631567,86.895403)"
     d="M -406.52463,1180.0082 -863.70831,604.52256 a 331.15313,331.15313 77.249565 0 1 -63.42261,-280.27772 l 164.88345,-716.25005 a 331.15315,331.15315 128.67814 0 1 179.5866,-224.33609 L 80.129126,-934.00483 a 331.15316,331.15316 0.10670829 0 1 287.363434,0.53519 l 661.60214,320.13011 a 331.15311,331.15311 51.535282 0 1 178.7498,225.00346 l 162.2143,716.85926 a 331.15318,331.15318 102.96385 0 1 -64.4661,280.03954 L 846.26858,1182.3415 a 331.15313,331.15313 154.39242 0 1 -259.13771,124.2001 l -734.9822,-1.3689 a 331.15317,331.15317 25.820995 0 1 -258.6733,-125.1645 z"
     inkscape:path-effect="#path-effect1"
     inkscape:original-d="M -307.326,1304.8757 -962.90694,479.65506 -726.47145,-547.41543 223.93971,-1002.9307 1172.6476,-543.87847 1405.2557,484.06559 746.60554,1306.8386 Z" />
  <g
     inkscape:groupmode="layer"
     inkscape:label="Image"
     id="g1"
     transform="translate(-124.18371,-918.0567)">
    <path
       style="fill:#3c8b94;fill-opacity:1;stroke-width:0.284387"
       d="m 191.3993,1113.4784 c -1.77768,-17.0005 -1.14681,-34.2166 -3.4577,-51.1713 0.54876,-8.1687 -14.39452,-0.8566 -12.85332,-4.1743 11.41057,-5.728 21.75199,-14.6502 27.5455,-26.1381 -5.29344,3.1245 -11.57559,10.7454 -17.94841,14.7226 -11.73866,8.7481 -25.33325,14.5081 -38.97162,19.5691 -1.40787,-5.759 0.81328,-12.5223 1.56331,-18.5541 3.35913,-19.3695 12.58203,-38.886 29.95019,-49.34668 8.38632,-5.71625 18.50892,-7.49565 28.21868,-9.47726 6.18762,-4.80127 -1.5748,-13.0821 -3.2711,-18.62349 -5.15381,-9.47088 -8.15502,-22.76502 -0.0963,-31.57065 7.94304,-9.32373 23.8082,-5.25053 29.18434,4.85915 3.46182,6.68503 7.97141,12.77155 14.69165,16.49078 9.8474,7.27843 20.03344,14.14891 29.60224,21.77423 -3.77397,2.02771 -12.9618,-5.22986 -18.61939,-6.81576 -12.72326,-5.4278 -25.24903,-12.46909 -39.09186,-14.25367 -3.21477,6.68417 4.54121,13.11456 7.03086,19.14634 8.74316,14.49828 10.11669,33.97781 0.41417,48.38041 -5.94429,9.3682 -14.77687,16.6589 -24.53293,21.7693 -4.32305,6.1441 -5.34711,14.3136 -6.16536,21.6992 -0.44799,13.7413 -0.14209,27.5404 -0.78757,41.2412 0.28909,2.4731 -2.42176,3.824 -2.40542,0.473 z m 32.06678,-165.39312 c 5.7836,-4.66383 -5.47877,-9.21614 -3.84943,-1.49416 0.22898,1.72095 2.51257,2.31521 3.84943,1.49416 z"
       id="path3739" />
    <path
       style="color:#000000;font-style:normal;font-variant:normal;font-weight:normal;font-stretch:normal;font-size:medium;line-height:normal;font-family:sans-serif;font-variant-ligatures:normal;font-variant-position:normal;font-variant-caps:normal;font-variant-numeric:normal;font-variant-alternates:normal;font-variant-east-asian:normal;font-feature-settings:normal;font-variation-settings:normal;text-indent:0;text-align:start;text-decoration-line:none;text-decoration-style:solid;text-decoration-color:#000000;letter-spacing:normal;word-spacing:normal;text-transform:none;writing-mode:lr-tb;direction:ltr;text-orientation:mixed;dominant-baseline:auto;baseline-shift:baseline;text-anchor:start;white-space:normal;shape-padding:0;shape-margin:0;inline-size:0;clip-rule:nonzero;display:inline;overflow:visible;visibility:visible;isolation:auto;mix-blend-mode:normal;color-interpolation:sRGB;color-interpolation-filters:linearRGB;solid-color:#000000;solid-opacity:1;vector-effect:none;fill:#e27a6b;fill-opacity:1;fill-rule:nonzero;stroke:none;stroke-width:0.16795;stroke-linecap:butt;stroke-linejoin:miter;stroke-miterlimit:4;stroke-dasharray:none;stroke-dashoffset:0;stroke-opacity:1;-inkscape-stroke:none;color-rendering:auto;image-rendering:auto;shape-rendering:auto;text-rendering:auto;enable-background:accumulate;stop-color:#000000"
       d="m 272.60209,1060.1591 c -0.4925,-0.1064 -1.05654,-0.5321 -1.25369,-0.946 -0.19716,-0.4138 -0.45331,-4.8919 -0.56916,-9.9513 l -0.21057,-9.199 -9.49314,-0.1148 -9.72364,-0.3068 c -0.80571,-0.025 -1.37479,-2.5758 -1.33155,-7.4643 0.0418,-4.7219 0.16189,-5.6764 0.79541,-6.325 0.65896,-0.6747 1.85639,-0.7889 10.24948,-0.9778 l 9.50344,-0.214 0.20918,-9.4993 c 0.15398,-6.9939 0.35279,-9.6459 0.75369,-10.0547 0.79109,-0.8065 12.23587,-0.7846 13.18924,0.025 0.58809,0.4995 0.69922,1.903 0.79601,10.0547 l 0.1124,9.474 9.29425,0.214 c 7.96768,0.1833 9.39462,0.3166 9.99679,0.9334 1.36336,1.3963 1.27601,11.9855 -0.11067,13.4036 -0.51349,0.5252 -2.19238,0.6379 -9.5045,0.6379 -6.34963,0 -9.02402,0.1463 -9.38306,0.5133 -0.35825,0.3665 -0.502,3.0616 -0.502,9.4129 0,10.915 0.1484,10.6078 -5.1247,10.6167 -1.89831,0 -3.90184,-0.1071 -4.36206,-0.015 -1.10695,-0.012 -2.23018,-0.047 -3.33115,-0.2177 z"
       id="path3740-5"
       sodipodi:nodetypes="sssccsssscsssscsssssssss" />
    <text
       xml:space="preserve"
       id="text3742"
       style="text-align:start;writing-mode:lr-tb;direction:ltr;white-space:pre;shape-inside:url(#rect3742);display:inline;fill:#88b763;fill-opacity:1" />
    <text
       xml:space="preserve"
       id="text3743"
       style="text-align:start;writing-mode:lr-tb;direction:ltr;white-space:pre;shape-inside:url(#rect3743);display:inline;fill:#88b763;fill-opacity:1" />
    <text
       xml:space="preserve"
       id="text3744"
       style="text-align:start;writing-mode:lr-tb;direction:ltr;white-space:pre;shape-inside:url(#rect3744);display:inline;fill:#88b763;fill-opacity:1" />
    <text
       xml:space="preserve"
       id="text3745"
       style="text-align:start;writing-mode:lr-tb;direction:ltr;white-space:pre;shape-inside:url(#rect3745);display:inline;fill:#88b763;fill-opacity:1" />
    <g
       id="text3746"
       style="font-weight:bold;font-size:160px;font-family:'Rounded Mplus 1c Bold';-inkscape-font-specification:'Rounded Mplus 1c Bold, Bold';white-space:pre;fill:#d94c48"
       transform="matrix(0.93890547,0,0,0.93890547,64.205315,-700.921)"
       aria-label="こうのすプラス防災">
      <path
         style="fill:#3c8b94"
         d="m 317.29813,1779.4343 h 76.15999 q 3.68,0 6.4,2.72 2.72,2.72 2.72,6.4 v 0.48 q 0,3.68 -2.72,6.4 -2.72,2.72 -6.4,2.72 h -76.15999 q -3.68,0 -6.40001,-2.72 -2.71999,-2.72 -2.71999,-6.4 v -0.48 q 0,-3.68 2.71999,-6.4 2.72001,-2.72 6.40001,-2.72 z m 37.76,123.84 q -28.64,0 -44.96001,-9.6 -16.32,-9.6 -16.32,-25.6 0,-14.88 18.40001,-34.4 2.55999,-2.88 6.56,-3.04 3.99999,-0.32 7.03999,2.08 l 1.12,0.8 q 2.88,2.08 3.04001,5.76 0.31999,3.68 -2.08001,6.24 -12.16,12.96 -12.16,20.32 0,8.32 10.24001,13.28 10.24,4.96 29.12,4.96 20,0 44.48,-5.28 3.67999,-0.8 6.71999,1.28 3.2,1.92 3.84,5.44 l 0.32001,1.28 q 0.79999,3.68 -1.28001,7.04 -1.92,3.2 -5.59999,4 -26.40001,5.44 -48.48,5.44 z m 101.27999,-71.36 -0.32,-0.96 q -0.8,-3.68 1.12,-6.88 2.08,-3.2 5.76,-4 38.56,-8.64 64.16001,-8.64 24.96,0 36.96,9.6 12.16,9.44 12.16,25.12 0,22.88 -20.48001,37.76 -20.32,14.72 -60.16,19.04 -3.84,0.48 -7.03999,-1.92 -3.04001,-2.24 -3.84001,-6.08 l -0.15999,-1.28 q -0.64001,-3.52 1.27999,-6.4 2.08,-3.04 5.76,-3.52 32.32,-4.32 47.84,-13.76 15.52,-9.6 15.52,-22.72 0,-16.64 -28.8,-16.64 -20.32,0 -58.72,8.16 -3.68,0.8 -7.04,-1.12 -3.2,-2.08 -4,-5.76 z m 31.36,-59.84 q 27.36001,3.36 56.48001,4.16 3.67999,0.16 6.39999,2.88 2.72001,2.56 2.72001,6.24 v 1.12 q 0,3.68 -2.72001,6.4 -2.55999,2.72 -6.24,2.56 -28.31999,-0.8 -59.03999,-4.64 -3.68,-0.48 -6.08001,-3.52 -2.24,-3.04 -1.76,-6.72 l 0.16001,-0.64 q 0.47999,-3.68 3.35999,-5.92 3.04,-2.4 6.72,-1.92 z m 177.44,25.6 q -18.71999,4 -29.44,17.12 -10.72,12.96 -10.72,31.84 0,12.16 4.96001,21.6 4.96,9.44 9.43999,9.44 2.24,0 4.64001,-2.08 2.4,-2.24 5.28,-7.84 3.03999,-5.76 5.76,-14.24 2.88,-8.64 5.75999,-22.72 3.04,-14.24 5.44001,-32 0.16,-0.48 -0.32,-0.8 -0.32001,-0.48 -0.80001,-0.32 z m -25.76,100.16 q -12.95999,0 -23.83999,-14.88 -10.88,-14.88 -10.88,-36.32 0,-31.04 21.12,-50.4 21.12,-19.36 55.19999,-19.36 27.52,0 45.44001,17.28 18.08,17.28 18.08,44 0,25.12 -11.68001,41.44 -11.51999,16.16 -31.68,20.64 -3.83999,0.8 -7.04,-1.44 -3.03999,-2.24 -3.84,-6.08 l -0.31999,-1.44 q -0.80001,-3.52 1.27999,-6.56 2.08001,-3.04 5.6,-4.16 27.36001,-8.48 27.36001,-42.4 0,-16.32 -9.76,-27.52 -9.60001,-11.36 -25.28001,-13.92 -1.44,-0.32 -1.76,1.12 -3.19999,24.16 -7.19999,42.08 -4,17.76 -8.48001,28.8 -4.32,10.88 -9.75999,17.6 -5.44001,6.56 -10.72001,9.12 -5.27999,2.4 -11.84,2.4 z m 199.2,-49.28 q 4.48001,-4.16 4.48001,-10.4 0,-6.24 -4.48001,-10.24 -4.48,-4.16 -11.51999,-4.16 -7.04,0 -11.52,4.16 -4.48,4 -4.48,10.24 0,6.24 4.48,10.4 4.48,4 11.52,4 7.03999,0 11.51999,-4 z m -64.79999,-48.8 q -3.52001,0 -6.08001,-2.4 -2.39999,-2.56 -2.39999,-6.08 0,-3.52 2.39999,-6.08 2.56,-2.56 6.08001,-2.56 h 65.76 q 1.43999,0 1.43999,-1.28 v -7.2 q 0,-3.68 2.72,-6.4 2.72001,-2.72 6.4,-2.72 h 2.08001 q 3.67999,0 6.39999,2.72 2.72001,2.72 2.72001,6.4 v 7.04 q 0,1.44 1.27999,1.44 h 32.8 q 3.52,0 5.92001,2.56 2.55999,2.56 2.55999,6.08 0,3.52 -2.55999,6.08 -2.40001,2.4 -5.92001,2.4 h -32.8 q -1.27999,0 -1.27999,1.44 v 28.96 q 0,1.6 0.48,2.72 3.67999,9.6 3.67999,20.16 0,22.72 -11.84,35.04 -11.83999,12.32 -39.19999,16.64 -3.68001,0.64 -6.88,-1.76 -3.04001,-2.4 -3.84001,-6.08 v -0.64 q -0.63999,-3.52 1.44,-6.4 2.24,-3.04 5.92001,-3.68 17.43999,-2.72 24.63999,-7.68 7.20001,-5.12 9.28,-14.56 0,-0.16 0,-0.32 0.16,-0.16 0.16,-0.32 v -0.16 h -0.47999 q -8.16001,6.56 -20.80001,6.56 -14.55999,0 -23.83999,-8.8 -9.12,-8.96 -9.12,-22.72 0,-13.92 9.28,-22.72 9.43999,-8.8 24.31999,-8.8 8.48,0 16,3.68 0.16001,0 0.16001,0.16 0,0 0.15999,0 0.16,0 0.16,-0.16 v -9.12 q 0,-1.44 -1.43999,-1.44 z"
         id="path2" />
      <path
         style="fill:#e27a6b"
         d="m 1041.6181,1791.1143 q 3.04,3.04 7.36,3.04 4.32,0 7.36,-3.04 3.04,-3.04 3.04,-7.36 0,-4.32 -3.04,-7.36 -3.04,-3.04 -7.36,-3.04 -4.32,0 -7.36,3.04 -3.04,3.04 -3.04,7.36 0,4.32 3.04,7.36 z m 7.36,-31.36 q 9.92,0 16.96,7.04 7.04,7.04 7.04,16.96 0,9.44 -6.56,16.48 -6.4,6.88 -15.84,7.52 -1.28,0 -1.28,1.12 v 1.28 q -4.96,41.44 -28.32,63.84 -23.35998,22.4 -66.87998,28.16 -3.84,0.48 -6.88,-1.92 -3.03999,-2.24 -3.84,-5.92 l -0.47999,-1.92 q -0.64001,-3.52 1.43999,-6.4 2.08001,-3.04 5.76,-3.52 37.44001,-5.12 55.67998,-23.52 18.4,-18.4 21.6,-54.72 0,-1.28 -1.12,-1.28 h -88.15998 q -3.67999,0 -6.4,-2.72 -2.72,-2.72 -2.72,-6.4 v -2.08 q 0,-3.68 2.72,-6.4 2.72001,-2.72 6.4,-2.72 h 85.59998 q 1.12,0 1.44,-1.44 0.96,-9.12 7.68,-15.2 6.88,-6.24 16.16,-6.24 z m 50.72,77.92 q -3.68,0 -6.4,-2.72 -2.72,-2.72 -2.72,-6.4 v -1.12 q 0,-3.68 2.72,-6.24 2.72,-2.72 6.4,-2.72 h 108 q 3.68,0 6.4,2.72 2.72,2.56 2.56,6.24 -1.6,34.08 -24.16,52.96 -22.4,18.72 -67.2,22.72 -3.84,0.32 -6.88,-2.08 -3.04,-2.4 -3.68,-6.24 l -0.32,-1.28 q -0.64,-3.52 1.6,-6.4 2.4,-2.88 6.08,-3.2 30.24,-2.72 48,-13.44 17.92,-10.88 22.88,-31.52 0.32,-1.28 -0.96,-1.28 z m 11.68,-60.8 h 86.4 q 3.68,0 6.4,2.72 2.72,2.56 2.72,6.24 v 1.12 q 0,3.68 -2.72,6.4 -2.72,2.72 -6.4,2.72 h -86.4 q -3.68,0 -6.4,-2.72 -2.72,-2.72 -2.72,-6.4 v -1.12 q 0,-3.68 2.72,-6.24 2.72,-2.72 6.4,-2.72 z m 144.16,116.16 -0.8,-1.6 q -1.76,-3.2 -0.64,-6.72 1.12,-3.68 4.32,-5.44 57.92,-31.04 84,-79.84 0.32,-0.32 0,-0.8 -0.32,-0.48 -0.8,-0.48 h -68 q -3.68,0 -6.4,-2.72 -2.72,-2.72 -2.72,-6.4 v -1.6 q 0,-3.68 2.72,-6.24 2.72,-2.72 6.4,-2.72 h 84.16 q 3.68,0 6.4,2.72 2.72,2.56 2.72,6.24 v 1.6 q 0,9.6 -4,17.44 -10.08,19.68 -26.08,37.6 -0.96,0.96 0,1.92 20.96,19.2 37.28,35.04 2.72,2.72 2.72,6.4 0,3.68 -2.56,6.4 l -1.92,1.76 q -2.72,2.56 -6.56,2.56 -3.68,0 -6.4,-2.72 -20.16,-19.84 -36.8,-34.88 -0.96,-0.64 -2.08,0.16 -23.52,21.6 -52.32,36.32 -3.36,1.76 -7.2,0.48 -3.68,-1.12 -5.44,-4.48 z m 160,17.12 q -3.68,0 -6.4,-2.72 -2.72,-2.72 -2.72,-6.4 v -122.56 q 0,-3.68 2.72,-6.4 2.72,-2.72 6.4,-2.72 h 34.88 q 3.68,0 6.24,2.56 2.56,2.56 2.56,6.24 0,3.52 -0.16,5.28 0,1.12 1.12,0.8 0.64,-0.16 2.08,-0.16 h 21.92 q 1.28,0 1.28,-1.44 v -10.08 q 0,-3.68 2.72,-6.4 2.72,-2.72 6.4,-2.72 h 3.2 q 3.68,0 6.4,2.72 2.72,2.72 2.72,6.4 v 10.08 q 0,1.44 1.28,1.44 h 33.12 q 3.68,0 6.24,2.72 2.72,2.56 2.72,6.24 0,3.68 -2.72,6.4 -2.56,2.72 -6.24,2.72 h -45.92 q -1.28,0 -1.28,1.28 0,1.12 -0.48,16.96 0,1.44 1.44,1.44 h 38.24 q 3.68,0 6.24,2.72 2.72,2.72 2.72,6.4 -0.16,33.76 -3.04,50.08 -2.88,16.32 -8.16,21.12 -5.12,4.8 -15.84,4.8 -8.96,0 -19.04,-0.8 -3.84,-0.16 -6.56,-3.2 -2.56,-2.88 -2.88,-6.72 v -0.96 q -0.16,-3.52 2.24,-6.08 2.56,-2.56 6.24,-2.24 9.6,0.8 14.24,0.8 4.16,0 6.24,-2.88 2.24,-3.04 3.68,-13.28 1.6,-10.24 2.08,-30.08 0,-1.44 -1.28,-1.44 h -26.56 q -1.28,0 -1.6,1.44 -2.72,21.92 -9.76,36.32 -6.88,14.24 -20,26.4 -2.88,2.56 -6.72,2.4 -3.84,-0.16 -6.72,-2.88 l -2.4,-2.24 q -2.56,-2.56 -2.4,-6.08 0.16,-3.52 2.88,-5.92 15.2,-13.44 20.32,-30.72 5.28,-17.44 5.44,-55.36 0,-1.28 -1.28,-1.28 h -9.12 q -3.36,0 -6.08,-2.4 -0.32,-0.32 -0.8,-0.32 -0.48,0 -0.64,0.48 -4.16,10.88 -9.6,21.76 -0.64,1.44 0.16,2.4 11.52,16.32 11.52,32.96 0,11.68 -4.64,17.44 -4.48,5.76 -14.08,6.72 -3.84,0.32 -7.04,-2.24 -3.2,-2.56 -4,-6.4 l -1.12,-5.28 q -0.16,0 -0.32,0.16 v 33.6 q 0,3.68 -2.72,6.4 -2.72,2.72 -6.4,2.72 z m 10.08,-123.36 v 34.24 q 0,0.16 0.16,0.16 0.32,0 0.48,-0.16 8.8,-17.6 14.4,-34.4 0.32,-1.28 -0.8,-1.28 h -12.8 q -1.44,0 -1.44,1.44 z m 0,40.64 v 36 q 0,1.44 1.44,1.44 h 2.08 q 5.28,0 7.04,-2.24 1.92,-2.4 1.92,-9.76 0,-6.4 -2.4,-11.84 -2.24,-5.6 -9.12,-13.92 -0.32,-0.32 -0.64,-0.16 -0.32,0.16 -0.32,0.48 z m 184.64,-4.16 q 1.92,2.72 0.48,5.6 -1.44,2.88 -4.64,3.52 l -4,0.8 q -4,0.64 -7.84,-0.96 -3.68,-1.76 -5.92,-5.28 -7.2,-11.04 -16.96,-21.28 -2.56,-2.72 -2.56,-6.4 0.16,-3.68 2.88,-6.4 8.16,-7.84 15.04,-16.96 5.6,-7.36 14.4,-6.08 l 3.36,0.64 q 3.04,0.48 4.16,3.36 1.28,2.88 -0.64,5.28 -7.52,9.6 -17.6,19.2 -0.96,0.96 0,1.92 12.96,12.96 19.84,23.04 z m 91.68,-1.6 q 1.92,2.72 0.48,5.6 -1.28,2.88 -4.48,3.52 l -4,0.8 q -4,0.64 -7.84,-0.96 -3.84,-1.76 -6.08,-5.28 -7.52,-11.68 -16.8,-21.28 -2.56,-2.56 -2.56,-6.4 0.16,-3.84 2.72,-6.4 8.8,-8.48 15.2,-16.96 5.6,-7.36 14.24,-6.08 l 3.36,0.64 q 3.04,0.48 4.32,3.36 1.28,2.88 -0.64,5.28 -7.04,8.96 -17.76,19.2 -0.96,0.8 0.16,1.92 12.48,12.48 19.68,23.04 z m -133.44,80.16 -0.96,-2.08 q -1.44,-3.2 0.16,-6.24 1.6,-3.2 5.12,-4 28.32,-6.88 40.32,-16.8 12,-10.08 12,-24.96 v -10.72 q 0,-3.68 2.56,-6.24 2.72,-2.72 6.4,-2.72 h 0.96 q 0.48,0 0.64,-0.48 0.32,-0.48 0,-0.8 -7.68,-11.52 -18.24,-22.08 -2.56,-2.72 -2.56,-6.4 0,-3.68 2.56,-6.24 8.8,-8.48 15.2,-16.96 5.6,-7.36 14.24,-6.08 l 3.52,0.64 q 3.04,0.48 4.16,3.36 1.28,2.88 -0.64,5.28 -7.04,8.96 -17.76,19.2 -0.8,0.96 0.16,1.92 12.8,12.16 19.52,21.28 1.92,2.72 0.64,5.6 -1.28,2.88 -4.48,3.52 l -3.68,0.64 q -1.44,0.32 -1.44,1.6 v 15.68 q 0,14.88 12,24.96 12,9.92 40.32,16.8 3.52,0.8 5.12,4 1.6,3.04 0.16,6.24 l -0.96,2.08 q -1.6,3.68 -5.12,5.44 -3.52,1.76 -7.36,0.8 -17.44,-4.64 -31.2,-12.96 -13.76,-8.48 -22.08,-19.2 -0.8,-0.96 -1.6,-0.16 -8.64,10.88 -23.04,19.52 -14.24,8.48 -32.16,12.96 -3.84,0.96 -7.36,-0.96 -3.52,-1.76 -5.12,-5.44 z m 28.8,-60.16 1.76,0.48 q 3.68,1.12 5.28,4.48 1.6,3.36 0,6.72 -4,8.8 -9.28,16.32 -2.24,3.36 -6.08,4.48 -3.84,0.96 -7.52,-0.64 l -1.76,-0.8 q -3.04,-1.28 -4,-4.64 -0.8,-3.36 1.12,-6.08 4.64,-6.72 8.32,-14.56 1.6,-3.52 4.96,-5.12 3.52,-1.76 7.2,-0.64 z m 96.64,-1.44 q 3.52,1.12 4.96,4.48 1.44,3.2 -0.16,6.4 -4.48,8.64 -10.88,16.64 -2.56,3.2 -6.56,4.16 -4,0.8 -7.68,-0.96 l -1.92,-0.8 q -3.04,-1.28 -3.68,-4.64 -0.64,-3.36 1.44,-5.92 5.12,-6.4 9.76,-14.72 1.92,-3.36 5.44,-4.8 3.52,-1.6 7.2,-0.48 z"
         id="path3" />
    </g>
    <text
       xml:space="preserve"
       style="font-style:normal;font-variant:normal;font-weight:normal;font-stretch:normal;font-size:192px;font-family:'Lucida Console';-inkscape-font-specification:'Lucida Console, Normal';font-variant-ligatures:normal;font-variant-caps:normal;font-variant-numeric:normal;font-variant-east-asian:normal;text-align:start;writing-mode:lr-tb;direction:ltr;text-anchor:start;fill:#88b763;fill-opacity:1"
       x="2483.7983"
       y="2050.519"
       id="text3747"><tspan
         sodipodi:role="line"
         id="tspan3747"
         x="2483.7983"
         y="2050.519" /></text>
  </g>
</svg>
